<svg width="17" height="16" viewBox="0 0 17 16" fill="none" xmlns="http://www.w3.org/2000/svg">
<path d="M16.0591 13.0092H15.1586L14.8102 8.18212H15.1882C15.2676 8.18236 15.3456 8.16053 15.4135 8.11904C15.4814 8.07754 15.5366 8.01798 15.5731 7.9469L16.444 6.27761C16.4944 6.18138 16.5075 6.06973 16.4808 5.96432C16.4541 5.8589 16.3895 5.76725 16.2995 5.70714L8.89683 0.792292C8.82546 0.744954 8.7419 0.719727 8.65646 0.719727C8.57102 0.719727 8.48746 0.744954 8.41609 0.792292L1.01344 5.70714C0.923458 5.76725 0.858841 5.8589 0.832128 5.96432C0.805414 6.06973 0.818509 6.18138 0.868872 6.27761L1.73977 7.9469C1.77628 8.01798 1.83152 8.07754 1.89943 8.11904C1.96734 8.16053 2.04529 8.18236 2.12471 8.18212H2.4992L2.15084 13.0092H1.25381C1.13832 13.0092 1.02756 13.0554 0.9459 13.1377C0.864237 13.22 0.818359 13.3316 0.818359 13.448V15.2033C0.818359 15.3197 0.864237 15.4313 0.9459 15.5136C1.02756 15.5959 1.13832 15.6421 1.25381 15.6421H16.0591C16.1746 15.6421 16.2854 15.5959 16.367 15.5136C16.4487 15.4313 16.4946 15.3197 16.4946 15.2033V13.448C16.4946 13.3316 16.4487 13.22 16.367 13.1377C16.2854 13.0554 16.1746 13.0092 16.0591 13.0092ZM14.2842 13.0092H12.7828L13.1311 8.18212H13.9463L14.2842 13.0092ZM10.2781 13.0092L9.92972 8.18212H12.2463L11.8979 13.0092H10.2781ZM5.40104 13.0092L5.05268 8.18212H7.36927L7.02091 13.0092H5.40104ZM8.24888 8.18212H9.06404L9.4124 13.0092H7.90574L8.24888 8.18212ZM1.82338 6.22144L8.65646 1.6875L15.4895 6.22144L14.9269 7.30446H2.38598L1.82338 6.22144ZM3.37184 8.18212H4.187L4.53536 13.0092H3.0287L3.37184 8.18212ZM15.6237 14.7645H1.68926V13.8868H15.6237V14.7645Z" fill="#357C95"/>
</svg>
