<svg width="16" height="20" viewBox="0 0 16 20" fill="none" xmlns="http://www.w3.org/2000/svg">
<path d="M15.9926 7.55599C15.9924 7.34424 15.9186 7.13565 15.7656 6.97986L9.36565 0.461346C9.2127 0.305054 9.00795 0.229226 8.8 0.229226V0.222656H4C1.79455 0.222656 0 2.05044 0 4.29673V15.7041C0 17.9504 1.79455 19.7782 4 19.7782H12C14.2055 19.7782 16 17.9504 16 15.7041V7.55599H15.9926ZM9.6 3.00448L13.2688 6.74117H12C10.6765 6.74117 9.6 5.64469 9.6 4.29673V3.00448ZM12 18.1486H4C2.67655 18.1486 1.6 17.0521 1.6 15.7041V4.29673C1.6 2.94877 2.67655 1.85229 4 1.85229H8V4.29673C8 6.54302 9.79455 8.3708 12 8.3708H14.4V15.7041C14.4 17.0521 13.3235 18.1486 12 18.1486ZM12 14.8893C12 15.3397 11.6418 15.7041 11.2 15.7041H4.8C4.3582 15.7041 4 15.3397 4 14.8893C4 14.4389 4.3582 14.0745 4.8 14.0745H11.2C11.6418 14.0745 12 14.4389 12 14.8893ZM12 11.6301C12 12.0805 11.6418 12.4449 11.2 12.4449H4.8C4.3582 12.4449 4 12.0805 4 11.6301C4 11.1797 4.3582 10.8152 4.8 10.8152H11.2C11.6418 10.8152 12 11.1797 12 11.6301ZM4 8.3708C4 7.92042 4.3582 7.55599 4.8 7.55599H6.4C6.8418 7.55599 7.2 7.92042 7.2 8.3708C7.2 8.82119 6.8418 9.18562 6.4 9.18562H4.8C4.3582 9.18562 4 8.82119 4 8.3708Z" fill="#7F879F"/>
</svg>
