<svg width="15" height="15" viewBox="0 0 15 15" fill="none" xmlns="http://www.w3.org/2000/svg">
<path d="M14.4023 4.4656L10.5345 0.597798C10.4136 0.476948 10.2496 0.409058 10.0787 0.409058C9.90776 0.409058 9.74383 0.476948 9.62294 0.597798L0.598058 9.62268C0.477157 9.74354 0.409216 9.90748 0.40918 10.0784V13.9462C0.40918 14.1172 0.477096 14.2812 0.597989 14.4021C0.718881 14.523 0.882846 14.5909 1.05381 14.5909H4.92162C5.09257 14.5908 5.25651 14.5229 5.37738 14.402L14.4023 5.37712C14.5231 5.25623 14.591 5.09229 14.591 4.92136C14.591 4.75043 14.5231 4.58649 14.4023 4.4656ZM4.65474 13.3016H1.69845V10.3453L8.14479 3.89897L11.1011 6.85526L4.65474 13.3016ZM12.0126 5.94375L9.0563 2.98746L10.0787 1.96507L13.035 4.92136L12.0126 5.94375Z" fill="white"/>
</svg>
