<svg width="14" height="14" viewBox="0 0 14 14" fill="none" xmlns="http://www.w3.org/2000/svg">
<path d="M3.625 6L3.625 2.25C3.625 1.91848 3.7567 1.60054 3.99112 1.36612C4.22554 1.1317 4.54348 0.999999 4.875 0.999999L11.75 1C12.0815 1 12.3995 1.1317 12.6339 1.36612C12.8683 1.60054 13 1.91848 13 2.25L13 9.125C13 9.45652 12.8683 9.77446 12.6339 10.0089C12.3995 10.2433 12.0815 10.375 11.75 10.375L8 10.375M5.5 12.25L5.5 8.5M5.5 8.5L1.75 8.5M5.5 8.5L1 13" stroke="#357C95" stroke-width="1.2" stroke-linecap="round" stroke-linejoin="round"/>
</svg>
