<svg width="18" height="20" viewBox="0 0 18 20" fill="none" xmlns="http://www.w3.org/2000/svg">
<path d="M5.04773 0.61564V0.615039H4.99773C4.64295 0.615039 4.28813 0.705765 3.97136 0.888676M5.04773 0.61564L0.950005 3.33459C0.948578 2.93883 1.26817 2.61676 1.66394 2.61519L1.66414 2.61519L2.94818 2.61519M5.04773 0.61564C5.38585 0.623765 5.72348 0.714342 6.02539 0.888676C6.6444 1.24608 7.03119 1.90309 7.04857 2.61519M5.04773 0.61564V0.665039L17.05 3.33469C17.0515 2.93888 16.7319 2.61676 16.3361 2.61519H16.3359H7.04857M3.97136 0.888676C3.97136 0.888676 3.97136 0.888676 3.97136 0.888675L3.99636 0.931976L3.97136 0.888676ZM3.97136 0.888676C3.35231 1.24608 2.96552 1.90305 2.94818 2.61519M2.94818 2.61519C2.94778 2.63183 2.94758 2.6485 2.94758 2.66519H1.66414C1.29594 2.66665 0.99863 2.9663 1 3.3345V18.6703C1.00146 19.0365 1.29794 19.3329 1.66414 19.3344H16.3359C16.702 19.333 16.9985 19.0365 17 18.6703V3.3345C17.0014 2.9663 16.7041 2.66665 16.3359 2.66519H7.00118M2.94818 2.61519H2.99758V2.66519H7.00118M7.04857 2.61519C7.04897 2.63183 7.04918 2.6485 7.04918 2.66519L7.00118 2.66519M7.04857 2.61519H6.99918V2.66519C6.99914 1.95172 6.61832 1.28875 6.00039 0.931976C5.69145 0.753588 5.34401 0.665039 4.99773 0.665039L7.00118 2.66519M2.94759 5.97077L2.94759 5.97072C2.95637 5.57487 3.28435 5.26113 3.6802 5.26991C4.07585 5.27869 4.38948 5.60636 4.38101 6.00195V7.33614C4.38101 7.55721 4.49862 7.75755 4.69066 7.86842L2.94759 5.97077ZM2.94759 5.97077C2.94737 5.98117 2.94736 5.99153 2.94758 6.00193V7.33614C2.94758 8.06746 3.33792 8.74563 3.97136 9.11133C4.60475 9.47699 5.39204 9.47704 6.02543 9.11133C6.65887 8.74559 7.04918 8.06742 7.04922 7.33614V4.04863H15.6153V17.951H2.38344V4.04863H5.61445M2.94759 5.97077L5.61445 4.04863M5.61445 4.04863V7.33614C5.61445 7.55724 5.49681 7.75755 5.3048 7.86842L5.61445 4.04863ZM4.99773 2.04977C5.1032 2.04977 5.20872 2.07747 5.3048 2.13291C5.48226 2.23536 5.59615 2.41417 5.61243 2.61515H4.38303C4.39932 2.41416 4.51324 2.23532 4.69066 2.13291C4.78669 2.07748 4.89225 2.04977 4.99773 2.04977Z" fill="#7F879F" stroke="#7F879F" stroke-width="0.1"/>
</svg>
