<svg width="16" height="17" viewBox="0 0 16 17" fill="none" xmlns="http://www.w3.org/2000/svg">
<path fill-rule="evenodd" clip-rule="evenodd" d="M0 7.54604C0 3.66096 3.16096 0.5 7.04604 0.5C10.9313 0.5 14.0921 3.66096 14.0921 7.54604C14.0921 9.25503 13.4805 10.8238 12.4648 12.0451L15.8094 15.3898C16.0635 15.6436 16.0635 16.0556 15.8094 16.3094C15.6824 16.4365 15.5159 16.5 15.3496 16.5C15.1831 16.5 15.0168 16.4365 14.8897 16.3094L11.5451 12.9648C10.3238 13.9805 8.75503 14.5921 7.04604 14.5921C3.16096 14.5921 0 11.4313 0 7.54604ZM1.30081 7.54607C1.30081 10.714 3.87814 13.2913 7.04604 13.2913C10.2139 13.2913 12.7913 10.7139 12.7913 7.54604C12.7913 4.37814 10.2139 1.80081 7.04604 1.80081C3.87814 1.80081 1.30081 4.37818 1.30081 7.54607Z" fill="#7F879F"/>
</svg>
