<svg width="17" height="4" viewBox="0 0 17 4" fill="none" xmlns="http://www.w3.org/2000/svg">
<path d="M3.44 1.64C3.44 0.72 2.72 0 1.74 0C0.72 0 0 0.72 0 1.64C0 2.56 0.72 3.28 1.74 3.28C2.72 3.28 3.44 2.56 3.44 1.64Z" fill="#06163F"/>
<path d="M9.83062 1.64C9.83062 0.72 9.11062 0 8.13062 0C7.11062 0 6.39062 0.72 6.39062 1.64C6.39062 2.56 7.11062 3.28 8.13062 3.28C9.11062 3.28 9.83062 2.56 9.83062 1.64Z" fill="#06163F"/>
<path d="M16.2213 1.64C16.2213 0.72 15.5012 0 14.5212 0C13.5012 0 12.7812 0.72 12.7812 1.64C12.7812 2.56 13.5012 3.28 14.5212 3.28C15.5012 3.28 16.2213 2.56 16.2213 1.64Z" fill="#06163F"/>
</svg>
