<svg width="29" height="13" viewBox="0 0 29 13" fill="none" xmlns="http://www.w3.org/2000/svg">
<path d="M2.53534 7.668H5.29534V9H0.855344V0.624H2.53534V7.668ZM9.31516 9.108C8.67516 9.108 8.09916 8.968 7.58716 8.688C7.07516 8.4 6.67116 7.996 6.37516 7.476C6.08716 6.956 5.94316 6.356 5.94316 5.676C5.94316 4.996 6.09116 4.396 6.38716 3.876C6.69116 3.356 7.10316 2.956 7.62316 2.676C8.14316 2.388 8.72316 2.244 9.36316 2.244C10.0032 2.244 10.5832 2.388 11.1032 2.676C11.6232 2.956 12.0312 3.356 12.3272 3.876C12.6312 4.396 12.7832 4.996 12.7832 5.676C12.7832 6.356 12.6272 6.956 12.3152 7.476C12.0112 7.996 11.5952 8.4 11.0672 8.688C10.5472 8.968 9.96316 9.108 9.31516 9.108ZM9.31516 7.644C9.61916 7.644 9.90316 7.572 10.1672 7.428C10.4392 7.276 10.6552 7.052 10.8152 6.756C10.9752 6.46 11.0552 6.1 11.0552 5.676C11.0552 5.044 10.8872 4.56 10.5512 4.224C10.2232 3.88 9.81916 3.708 9.33916 3.708C8.85916 3.708 8.45516 3.88 8.12716 4.224C7.80716 4.56 7.64716 5.044 7.64716 5.676C7.64716 6.308 7.80316 6.796 8.11516 7.14C8.43516 7.476 8.83516 7.644 9.31516 7.644ZM16.6195 2.244C17.1155 2.244 17.5515 2.344 17.9275 2.544C18.3035 2.736 18.5995 2.988 18.8155 3.3V2.352H20.5075V9.048C20.5075 9.664 20.3835 10.212 20.1355 10.692C19.8875 11.18 19.5155 11.564 19.0195 11.844C18.5235 12.132 17.9235 12.276 17.2195 12.276C16.2755 12.276 15.4995 12.056 14.8915 11.616C14.2915 11.176 13.9515 10.576 13.8715 9.816H15.5395C15.6275 10.12 15.8155 10.36 16.1035 10.536C16.3995 10.72 16.7555 10.812 17.1715 10.812C17.6595 10.812 18.0555 10.664 18.3595 10.368C18.6635 10.08 18.8155 9.64 18.8155 9.048V8.016C18.5995 8.328 18.2995 8.588 17.9155 8.796C17.5395 9.004 17.1075 9.108 16.6195 9.108C16.0595 9.108 15.5475 8.964 15.0835 8.676C14.6195 8.388 14.2515 7.984 13.9795 7.464C13.7155 6.936 13.5835 6.332 13.5835 5.652C13.5835 4.98 13.7155 4.384 13.9795 3.864C14.2515 3.344 14.6155 2.944 15.0715 2.664C15.5355 2.384 16.0515 2.244 16.6195 2.244ZM18.8155 5.676C18.8155 5.268 18.7355 4.92 18.5755 4.632C18.4155 4.336 18.1995 4.112 17.9275 3.96C17.6555 3.8 17.3635 3.72 17.0515 3.72C16.7395 3.72 16.4515 3.796 16.1875 3.948C15.9235 4.1 15.7075 4.324 15.5395 4.62C15.3795 4.908 15.2995 5.252 15.2995 5.652C15.2995 6.052 15.3795 6.404 15.5395 6.708C15.7075 7.004 15.9235 7.232 16.1875 7.392C16.4595 7.552 16.7475 7.632 17.0515 7.632C17.3635 7.632 17.6555 7.556 17.9275 7.404C18.1995 7.244 18.4155 7.02 18.5755 6.732C18.7355 6.436 18.8155 6.084 18.8155 5.676ZM25.1003 9.108C24.4603 9.108 23.8843 8.968 23.3723 8.688C22.8603 8.4 22.4563 7.996 22.1603 7.476C21.8723 6.956 21.7283 6.356 21.7283 5.676C21.7283 4.996 21.8763 4.396 22.1723 3.876C22.4763 3.356 22.8883 2.956 23.4083 2.676C23.9283 2.388 24.5083 2.244 25.1483 2.244C25.7883 2.244 26.3683 2.388 26.8883 2.676C27.4083 2.956 27.8163 3.356 28.1123 3.876C28.4163 4.396 28.5683 4.996 28.5683 5.676C28.5683 6.356 28.4123 6.956 28.1003 7.476C27.7963 7.996 27.3803 8.4 26.8523 8.688C26.3323 8.968 25.7483 9.108 25.1003 9.108ZM25.1003 7.644C25.4043 7.644 25.6883 7.572 25.9523 7.428C26.2243 7.276 26.4403 7.052 26.6003 6.756C26.7603 6.46 26.8403 6.1 26.8403 5.676C26.8403 5.044 26.6723 4.56 26.3363 4.224C26.0083 3.88 25.6043 3.708 25.1243 3.708C24.6443 3.708 24.2403 3.88 23.9123 4.224C23.5923 4.56 23.4323 5.044 23.4323 5.676C23.4323 6.308 23.5883 6.796 23.9003 7.14C24.2203 7.476 24.6203 7.644 25.1003 7.644Z" fill="#357C95"/>
</svg>
