<svg width="18" height="17" viewBox="0 0 18 17" fill="none" xmlns="http://www.w3.org/2000/svg">
<path d="M14.9507 1.69994H13.2507V0.849939C13.2507 0.624505 13.1611 0.408304 13.0017 0.248898C12.8423 0.0894922 12.6261 -6.10352e-05 12.4007 -6.10352e-05C12.1752 -6.10352e-05 11.959 0.0894922 11.7996 0.248898C11.6402 0.408304 11.5507 0.624505 11.5507 0.849939V1.69994H6.45067V0.849939C6.45067 0.624505 6.36112 0.408304 6.20171 0.248898C6.04231 0.0894922 5.82611 -6.10352e-05 5.60067 -6.10352e-05C5.37524 -6.10352e-05 5.15904 0.0894922 4.99963 0.248898C4.84023 0.408304 4.75067 0.624505 4.75067 0.849939V1.69994H3.05067C2.37437 1.69994 1.72577 1.9686 1.24755 2.44682C0.769331 2.92503 0.500671 3.57364 0.500671 4.24994V14.4499C0.500671 15.1262 0.769331 15.7748 1.24755 16.2531C1.72577 16.7313 2.37437 16.9999 3.05067 16.9999H14.9507C15.627 16.9999 16.2756 16.7313 16.7538 16.2531C17.232 15.7748 17.5007 15.1262 17.5007 14.4499V4.24994C17.5007 3.57364 17.232 2.92503 16.7538 2.44682C16.2756 1.9686 15.627 1.69994 14.9507 1.69994ZM15.8007 14.4499C15.8007 14.6754 15.7111 14.8916 15.5517 15.051C15.3923 15.2104 15.1761 15.2999 14.9507 15.2999H3.05067C2.82524 15.2999 2.60904 15.2104 2.44963 15.051C2.29022 14.8916 2.20067 14.6754 2.20067 14.4499V8.49994H15.8007V14.4499ZM15.8007 6.79994H2.20067V4.24994C2.20067 4.02451 2.29022 3.8083 2.44963 3.6489C2.60904 3.48949 2.82524 3.39994 3.05067 3.39994H4.75067V4.24994C4.75067 4.47537 4.84023 4.69157 4.99963 4.85098C5.15904 5.01039 5.37524 5.09994 5.60067 5.09994C5.82611 5.09994 6.04231 5.01039 6.20171 4.85098C6.36112 4.69157 6.45067 4.47537 6.45067 4.24994V3.39994H11.5507V4.24994C11.5507 4.47537 11.6402 4.69157 11.7996 4.85098C11.959 5.01039 12.1752 5.09994 12.4007 5.09994C12.6261 5.09994 12.8423 5.01039 13.0017 4.85098C13.1611 4.69157 13.2507 4.47537 13.2507 4.24994V3.39994H14.9507C15.1761 3.39994 15.3923 3.48949 15.5517 3.6489C15.7111 3.8083 15.8007 4.02451 15.8007 4.24994V6.79994Z" fill="#384453"/>
</svg>
