<svg width="17" height="15" viewBox="0 0 17 15" fill="none" xmlns="http://www.w3.org/2000/svg">
<path fill-rule="evenodd" clip-rule="evenodd" d="M0.700195 3.90506C0.700195 3.43838 1.07851 3.06006 1.5452 3.06006H9.7677C10.2344 3.06006 10.6127 3.43838 10.6127 3.90506C10.6127 4.37174 10.2344 4.75006 9.7677 4.75006H1.5452C1.07851 4.75006 0.700195 4.37174 0.700195 3.90506Z" fill="#384453"/>
<path fill-rule="evenodd" clip-rule="evenodd" d="M13.0502 2.34503C12.1707 2.34503 11.4577 3.05802 11.4577 3.93753C11.4577 4.81704 12.1707 5.53003 13.0502 5.53003C13.9297 5.53003 14.6427 4.81704 14.6427 3.93753C14.6427 3.05802 13.9297 2.34503 13.0502 2.34503ZM9.7677 3.93753C9.7677 2.12465 11.2373 0.655029 13.0502 0.655029C14.8631 0.655029 16.3327 2.12465 16.3327 3.93753C16.3327 5.7504 14.8631 7.22003 13.0502 7.22003C11.2373 7.22003 9.7677 5.7504 9.7677 3.93753Z" fill="#384453"/>
<path fill-rule="evenodd" clip-rule="evenodd" d="M16.3 11.2824C16.3 11.7491 15.9217 12.1274 15.455 12.1274H7.23255C6.76587 12.1274 6.38755 11.7491 6.38755 11.2824C6.38755 10.8158 6.76587 10.4374 7.23255 10.4374H15.455C15.9217 10.4374 16.3 10.8158 16.3 11.2824Z" fill="#384453"/>
<path fill-rule="evenodd" clip-rule="evenodd" d="M3.95004 12.8426C4.82956 12.8426 5.54254 12.1296 5.54254 11.2501C5.54254 10.3706 4.82956 9.65759 3.95004 9.65759C3.07053 9.65759 2.35754 10.3706 2.35754 11.2501C2.35754 12.1296 3.07053 12.8426 3.95004 12.8426ZM7.23254 11.2501C7.23254 13.063 5.76292 14.5326 3.95004 14.5326C2.13717 14.5326 0.667543 13.063 0.667542 11.2501C0.667542 9.43722 2.13717 7.96759 3.95004 7.96759C5.76292 7.96759 7.23254 9.43722 7.23254 11.2501Z" fill="#384453"/>
</svg>
